<?xml version="1.0" encoding="UTF-8"?><svg width="2184" height="294" xmlns="http://www.w3.org/2000/svg"><path fill="#eac435" fill-rule="evenodd" stroke="#000" stroke-width="8" stroke-linecap="round" stroke-linejoin="round" d="M1236 289.5c-7.4.2-16.2 0-19.5-.5a101.9 101.9 0 0 1-26.5-8.4c-3.6-1.9-9.2-5.4-12.6-8a115.9 115.9 0 0 1-24.7-26.8 229 229 0 0 1-12.7-23.4c-3.9-8.2-8.7-18.3-10.8-22.4-3.7-7.5-3.7-7.5-10.2-7.4a413.7 413.7 0 0 0-33.5 2.6c-.2.2-.7 15.8-1 34.6-.7 30-.6 34.5.7 35.8 1 1 6.6 2.2 17 3.5a816 816 0 0 1 22 3c6.2 1 6.8 1.3 6.8 3.5 0 1.3-.9 2.8-2 3.4-1.2.6-21.6 1-59.4 1-31.6 0-58.1-.3-59-.6-.9-.3-1.6-1.6-1.6-3 0-1.6.8-2.5 3-3.3 1.8-.6 10.2-1.8 18.8-2.7 13-1.3 16-2 17.9-3.6 1.2-1.1 2.6-4.1 3.2-6.7.6-2.5 1.6-9.1 2.1-14.6s1.4-24.6 2-42.5l2.1-75.5a1364.3 1364.3 0 0 0-.4-87.1c-.2-6.6-.6-8.6-2.2-10.4a17.3 17.3 0 0 0-5.2-3.6 38 38 0 0 0-11.1-1.4 378 378 0 0 1-18.7-.7c-9-.5-11.2-1-13.3-2.8-1.8-1.6-2.3-2.7-1.8-4.3.5-1.4 2-2.5 4.4-3.2a1178.2 1178.2 0 0 1 93.2 0 240 240 0 0 1 52.5 8.1 191.5 191.5 0 0 1 41.4 17.4 118 118 0 0 1 30.2 24.7 93 93 0 0 1 9.2 13.6 55.7 55.7 0 0 1 7 29.2 46 46 0 0 1-2.6 16.8 81 81 0 0 1-5.9 12.9 80 80 0 0 1-9.3 11.6 135 135 0 0 1-13.7 11.7 166 166 0 0 1-19 11.6c-6.2 3.2-15.6 7.7-20.8 10-9.5 4.2-9.5 4.2-9.2 8a168.6 168.6 0 0 0 16.5 48.8 107.2 107.2 0 0 0 16.7 24.9 60 60 0 0 0 11 9 59 59 0 0 0 13.6 5.3 88 88 0 0 0 20.6 1.3c7.3 0 14.6 0 16.3.2 2.1.3 3 1 3.3 2.5.2 1-.5 2.7-1.5 3.6-1 .9-3.6 2.1-5.8 2.8-2.2.6-10 1.3-17.5 1.5Zm126 0c-6.9.2-15 0-18.2-.5a93 93 0 0 1-24.4-7 98.9 98.9 0 0 1-12.1-6.8c-3.3-2.2-9-7.3-12.7-11.3-4.5-4.9-8-10-10.6-15.3a86.6 86.6 0 0 1-5.6-16.2c-1.3-6.3-1.6-11-1.1-20.5a105 105 0 0 1 2.6-20.2 149 149 0 0 1 5.5-16.3 115.6 115.6 0 0 1 24.2-35.4c4.4-4.1 10.8-9 14.4-11a89 89 0 0 1 12.4-5.2 81.2 81.2 0 0 1 35.1-1.4c6 .8 15 2.7 20 4 5 1.5 13 4.7 18 7 5 2.5 11.4 6.6 14.3 9.2a82.4 82.4 0 0 1 24.9 42.6 75.4 75.4 0 0 1 2.7 22.3c0 8.1-.5 14.5-1.8 19.8a90 90 0 0 1-15.5 31.3 81.2 81.2 0 0 1-25.1 19.8 102.4 102.4 0 0 1-47 11.1Zm586.7-1.6a27 27 0 0 1-4.2-.6c-1.1-.3-3.2-1.2-4.8-2-2.7-1.4-2.7-1.4-2.7-29.6 0-20.7.3-28.6 1.2-29.5.7-.7 4-1.2 7.9-1.2 4.4 0 7 .5 7.8 1.4.6.7 1.8 5 2.6 9.4.7 4.4 2.4 10 3.6 12.3a46 46 0 0 0 20.2 18.3 79 79 0 0 0 15.8 5.4 125.1 125.1 0 0 0 40 .4 61 61 0 0 0 11.4-4 17 17 0 0 0 7-6.4c1.7-3.2 1.8-4.2.8-7a18 18 0 0 0-4.5-6.1 66.7 66.7 0 0 0-11.3-6.6c-4.4-2.1-15.2-6.7-24-10.1-8.8-3.4-21-8.6-27-11.5a106.1 106.1 0 0 1-32.3-21.5 57 57 0 0 1-8.7-11.6c-2.2-4.3-3-7.4-3.3-13.3-.3-5.1.1-9.7 1.2-14a76 76 0 0 1 5.4-13.5c2-3.9 6.5-10 10-13.7a50.1 50.1 0 0 1 26.5-15.3 79.5 79.5 0 0 1 18-1.7c6 0 13.3.5 16.1 1.2 2.8.6 7.8 2.4 11.1 3.9s10.2 5.5 15.4 9c5.1 3.3 9.5 6 9.6 5.8.2-.2.7-4.8 1.2-10.3.8-10 .8-10 10-10.3 8.7-.3 9.3-.1 10.5 2 .9 1.7 1.3 11 1.6 34 .4 31.8.4 31.8-2.3 32.8-1.4.5-5 1-8 1-5.5 0-5.5 0-7.8-4.8-1.3-2.6-3.6-8.2-5.1-12.4a73 73 0 0 0-18-26.6 56 56 0 0 0-12.2-8.4 34.8 34.8 0 0 0-14-3.6 35 35 0 0 0-14.3 1.7 27.8 27.8 0 0 0-13 7.7c-3.7 3.4-7 7.7-8.7 11a31 31 0 0 0-3.2 13.3c-.2 4.2 0 9.4.7 11.7a37 37 0 0 0 4.2 8.7 48 48 0 0 0 9 9.1c3.2 2.4 11.6 7.4 18.7 11 7 3.5 19.7 9.4 28.2 13 8.5 3.8 19.6 8.7 24.6 11.1a67.2 67.2 0 0 1 14.7 9.5 38 38 0 0 1 7.2 8.6c1.2 2.5 1.6 5.2 1.3 8.5a21 21 0 0 1-2.9 8.4 42 42 0 0 1-7 7 69.2 69.2 0 0 1-25.5 11.4c-4.3 1-11.7 2.5-16.4 3a183.8 183.8 0 0 1-37 0 85.9 85.9 0 0 1-26-7 76.6 76.6 0 0 0-8.5-3.5c-2-.5-2.5 0-3.5 3.3a65 65 0 0 1-3.2 7.6c-1.3 2.7-2.4 3.7-4 3.6Zm-1569.2-1.4c-5.5.3-10.6.2-11.3 0-.6-.4-1.2-2-1.2-3.5 0-2.5.5-3 3.8-3.9 2-.5 9.3-1.7 16.2-2.7 6.9-1 14.4-2.5 16.8-3.5 3.2-1.4 4.7-2.7 5.9-5.6 1.2-2.8 1.9-10.7 2.9-30.8a3352.9 3352.9 0 0 0 1.7-170.7c-1-18.3-1.3-21.4-3-23.7a16.8 16.8 0 0 0-4.8-4c-1.5-.7-8-1.8-14.4-2.3-6.4-.6-13.2-1.4-15.2-2-2-.4-4-1.6-4.3-2.5-.4-1 0-2.4 1.1-3.4 1.3-1.3 4.8-2 12.7-2.8 6-.6 18.6-1.1 28-1.1 10 0 40.1-1.7 72.4-4 30.3-2.2 68.3-5 84.3-6 22.7-1.8 29.7-2 31.7-1 2.5 1.1 2.5 1.1 1.9 19.3a4029.6 4029.6 0 0 1-2.7 58.8 81 81 0 0 1-2 15.8c-.8 1.5-2 2.1-4.5 2.1-2.8 0-3.7-.6-5-2.9-.8-1.7-2.8-15.2-5-34.2-2.4-21-4.2-32.5-5.3-34.8-1-2-2.9-4.3-4.3-5.4-2.3-1.6-4.3-2-14-1.9-6.3 0-31 1.4-54.9 3.1-24 1.7-45.3 3.4-47.4 3.8a9.8 9.8 0 0 0-5.7 3.3c-1.5 2-2.2 6.1-3.4 20.5-.8 9.9-1.9 26.5-2.5 37l-2 40.5c-.6 11.9-1 24.2-.8 27.5.3 6 .3 6 5.2 7.2 4 1 11.8.8 42.2-.9a558 558 0 0 1 39.9-1.4c1.5.4 3 1.7 3.5 3.1.6 1.5.6 3.4 0 4.9a5.2 5.2 0 0 1-2.6 3c-1 .4-19.8 2-41.8 3.8-22 1.7-41.2 3.6-42.6 4.2-1.4.6-3 2.2-3.7 3.6-.7 1.6-1.4 13.4-1.9 34.1-.6 29.8-.6 31.9 1.2 35.5 1.4 3 2.8 4.2 5.7 5.1 3 1 13.9 1 50 .3 25.4-.5 52.2-1.4 59.5-1.9 9.8-.7 14-1.4 16.5-2.8 1.7-1 4-3.4 5-5.3.9-2 2-7.8 2.7-13 .5-5.2 1.4-17.6 2-27.5.6-9.9 1.3-20 1.6-22.4a12 12 0 0 1 3.4-7.3c2-2 3.8-2.8 6.2-2.8 2.3 0 4.2.8 5.6 2.3 1.1 1.2 2.5 3.5 3.1 5 .8 2 .8 14.5 0 43-1 37.7-1.2 40.3-3 41.9-1 .9-5 2.1-8.6 2.7-4 .6-32.2 1.3-67.3 1.6-33.3.3-73.5 1-89.5 1.5a812.8 812.8 0 0 0-58 3.5Zm1356 .3c-42.3.2-47.5 0-48.9-1.3a6.3 6.3 0 0 1-1.6-3.9c0-2.1.6-2.3 10.3-3.3a54 54 0 0 0 13.4-2.7c2.3-1.1 3.5-2.8 4.7-6.3a146 146 0 0 0 3-19.8c1-8.4 2.3-40 3.2-72 .9-31.4 1.6-72.9 1.6-92.3 0-25.8-.4-36.2-1.3-38.3-.7-1.8-2.8-3.8-5.1-5a46.1 46.1 0 0 0-16.1-3 189 189 0 0 1-15.7-1.6c-2-.5-3.6-1.5-3.8-2.5-.2-1 .8-2.4 2.4-3.5 2.4-1.5 6.2-1.8 29.8-2.4 15-.3 30-.3 33.5.2 3.5.4 7 1.4 7.9 2.2 1 1 1.3 2.6.8 4.9l-1.6 10.5-2.5 18c-1.1 7.9-1.8 28.6-2.6 76.7a2095 2095 0 0 0-.5 66.3c.3.3 4.5-2.1 9.3-5.4l22.8-15.8c7.7-5.4 18.7-13 24.5-16.8a541 541 0 0 0 17.8-12.4c5.5-4.1 7.2-6 7.2-7.8 0-1.7-1-3-3.2-4.1-2-1-7.3-2-14-2.5a41 41 0 0 1-12.3-2c-.8-.5-1.1-1.7-.8-2.5.3-.8 1.8-2.1 3.4-3 2.4-1.2 11-1.6 48.6-2 38.8-.6 46-.5 48.2.7a7 7 0 0 1 3 3.7c.1 1.6-.4 2.4-2 3-1.4.5-6.7 1.5-11.9 2.2-5.2.7-12 2-15.1 3-3.2 1-9 4-13 7a1670.5 1670.5 0 0 1-55.2 34.5 104 104 0 0 0-11.8 7.6 11.5 11.5 0 0 0-3.5 4.5c-.4 1.6 1 3.8 5.8 9a241 241 0 0 0 19.1 17 297 297 0 0 0 46 31c5.7 3 13.8 6.8 18.2 8.6 6.6 2.6 9.9 3.2 18.9 3.7 8.8.5 11.1 1 12 2.3.8 1.3.5 2.2-1.3 4.2a19 19 0 0 1-6.1 4 46.8 46.8 0 0 1-24 1.7 135.4 135.4 0 0 1-38.8-13.6 237.6 237.6 0 0 1-35.7-23 329.7 329.7 0 0 1-19.9-17.6c-6.5-6.3-13.1-12-14.7-12.8-2.5-1.3-3.5-1.3-6.7-.1-2 .7-6.3 3.4-9.6 5.9-5.8 4.6-5.8 4.6-5.4 26 .3 19.6.5 22 2.4 25.1a9.5 9.5 0 0 0 5.5 4.6c1.8.6 9.2 1.7 16.4 2.3 7.6.7 13.3 1.7 13.7 2.4.4.7.5 2.1.2 3.2a9.4 9.4 0 0 1-1.1 2.5c-.3.3-21.8.6-47.8.8Zm-106.8-143a197 197 0 0 1 2.9-23c.5-1.5 2.1-1.8 10.8-1.8a51 51 0 0 1 11.3.8c1 .6 1 3.9.3 14.8l-2.5 35.9c-1.4 21.6-1.5 22-4 24.3-2.2 1.9-3.8 2.2-10.4 2.2-5.5 0-8.2-.4-9-1.4-.7-.8-1.6-6.3-2.1-12.3a86.2 86.2 0 0 0-3-17.1 49.4 49.4 0 0 0-15.4-22.4 46 46 0 0 0-11.5-5.8c-3.5-1.1-8.6-2-11.5-2-2.8 0-8 1-11.6 2.3a64 64 0 0 0-12.2 6 89.2 89.2 0 0 0-30.2 38.7 99.1 99.1 0 0 0-7.8 51.2 42.9 42.9 0 0 0 10.5 21.7 45.6 45.6 0 0 0 22.6 11.7c3.6.7 10.9 1.4 16.1 1.4a203.2 203.2 0 0 0 35-3.6 140.8 140.8 0 0 0 45.5-17.9c3.3-1.9 7.4-3.5 9-3.5 1.7 0 3.6.5 4.3 1.2.7.7 1.2 2.4 1.2 3.9 0 1.9-1.4 3.9-4.8 7-2.6 2.5-8.5 6.9-13 9.8-4.7 3-11.3 6.6-14.7 8.2a156.5 156.5 0 0 1-29.5 9.4 188 188 0 0 1-42.8 1.5c-3.5-.5-10-1.8-14.4-3a90.6 90.6 0 0 1-30.6-14.9 87 87 0 0 1-10.2-9.7 70.4 70.4 0 0 1-12.5-24.7 88 88 0 0 1 0-33.5 176 176 0 0 1 4-14.4 138.6 138.6 0 0 1 15-28.7 102.8 102.8 0 0 1 21.4-22 75.3 75.3 0 0 1 27.4-13 77.3 77.3 0 0 1 29.1.4 67.9 67.9 0 0 1 28.7 15.4l8.6 7ZM87.5 281.6c-20 .6-23.2.5-24.3-.8-.7-.9-1-2.3-.6-3.2.3-.9 2.2-2 4.3-2.5 2-.5 8.5-1.7 14.6-2.6 6-1 13.4-2.7 16.3-4 3.2-1.5 5.5-3.3 6-4.7.5-1.3 1.5-12.2 2.1-24.3.6-12.1 1.6-34 2.1-48.5a5609 5609 0 0 1 2.2-53.5 993.7 993.7 0 0 0 .7-79.2c-.4-9.6-.7-11.6-2.4-13.3-1.7-1.6-4.6-2.3-15-3.5l-18.3-2.1c-5.3-.6-5.3-.6-5-4.3.3-3.6.4-3.6 5.8-4.3 3-.5 18.4-1.3 34.3-1.9 25.4-1 29-1 31 .4 1.4.9 5.8 7 10 13.5 4 6.6 14.4 22.3 23 34.8a7115.5 7115.5 0 0 0 78.8 113.9c7.6 10.4 16 21.4 18.6 24.4 3.3 3.6 5.7 5.4 7.3 5.5 2.5.1 2.5 0 3.2-11.4.4-6.3 1.3-37.6 2-69.5.8-44.4.8-63 0-79.5-.7-11.8-1.6-25.3-2.1-29.9-.6-6.1-1.4-8.8-2.8-10.3-1.4-1.3-4.3-2.2-9-2.8-3.7-.5-13.1-1-20.9-1-12.7 0-14.3-.2-15.9-2-1-1-1.5-2.6-1.2-3.4.3-.8 1.6-2 2.8-2.6a250 250 0 0 1 35.3-2.5c18.2-.8 44.3-1.7 58-2 14.6-.5 26-.4 27.5.1 1.4.5 2.7 1.8 3 2.8a4 4 0 0 1-1.1 3.2c-.8.8-9 2.7-18.3 4.4-9.4 1.6-18.7 3.4-20.7 4-2 .6-4.6 1.8-5.8 2.8a12 12 0 0 0-3 5.7c-.5 2.2-1.4 11-2 19.5-.6 8.5-1.5 30.8-2 49.5a7416 7416 0 0 0-2 86c-.7 44.3-.6 53.4.7 61.7a57 57 0 0 1 .8 13.4c-.3 2-2 5-3.5 6.6-2.5 2.4-3.6 2.8-8.8 2.8a24 24 0 0 1-12.2-3.1c-4-2-9-5.9-13.9-10.8-4.2-4.2-11-11.9-15.2-17.1a1779 1779 0 0 1-30.3-40.7 33016 33016 0 0 1-42.7-59c-11-15.3-22.8-31.1-26.2-35.2-3.4-4-8.2-10.3-10.7-14-3.4-5-5.2-6.7-7.2-7-1.9-.1-2.8.3-3.3 1.7-.3 1.1-1 26.7-1.6 56.9a1138.5 1138.5 0 0 0 1.8 106.5c.5 13.3 1 17.4 2.3 19.6 1.8 2.9 1.8 2.9 17.1 3.5l22.1 1.3c3.7.4 7.5 1.2 8.4 1.9 1.3 1 1.4 1.6.5 3.2a6.5 6.5 0 0 1-3.9 2.7 741 741 0 0 1-35.2 2c-17.9.9-42.9 1.8-55.5 2.2ZM20 278.7c-3.6.4-5.3 0-8-1.9a27.3 27.3 0 0 1-5.5-5c-1.4-2-2-4.3-2-7.8s.6-5.8 2-7.7a27 27 0 0 1 4.5-4.6c1.4-1 4.4-2 6.6-2.4 3.2-.4 5 0 8.3 1.8a16 16 0 0 1 6.1 6.1c1 2 1.9 5.1 1.9 6.8a20 20 0 0 1-1.4 6.4c-.7 1.8-2.8 4.3-4.6 5.6a18.4 18.4 0 0 1-7.9 2.7Zm705.2-2.1c-40.9.6-45.3.5-45.9-.9-.3-.9-.4-2.4-.2-3.4s1.7-2 3.8-2.5c2-.5 12.9-2 24.4-3.3 11.4-1.4 21.7-3 22.7-3.5 1-.6 2.3-2.7 2.9-4.8.5-2 1.5-8.9 2-15.2.5-6.3 1.7-31.6 2.5-56.3l2.5-76c.5-17.1 1-42 1-55.4 0-13.6-.4-25.3-1-26.8a8.4 8.4 0 0 0-4.5-4C733 23.3 727 23 710.1 23c-12.1 0-24.3.5-27 1a20 20 0 0 0-8 3.9 26 26 0 0 0-5.5 11.2 333 333 0 0 0-6 32.4l-5.8 38a77.8 77.8 0 0 1-3.2 15.1c-.8.9-3 1-8.1.2-3.8-.5-7.4-1.3-7.9-1.8s0-14.2 1.3-31.4l3.6-52.8c.9-12.3 2-23.5 2.6-25a8 8 0 0 1 3.5-3.7A230 230 0 0 1 684.3 9c17.7 0 55.6-.4 84.2-1a2650.5 2650.5 0 0 0 100.2-3.4c2.7 0 5 .6 6 1.6 1.5 1.5 1.5 2.8-.2 18L872 47.5c-.4 3.9-.8 20.3-1 36.5 0 16.2-.4 30.6-.8 32-.6 2.3-1.2 2.5-7 2.8-5.2.2-6.8 0-8.1-1.5-1.2-1.2-2.3-5.6-3.4-12.8-.9-6-2-18.9-2.6-28.5-.6-9.6-1.3-24.5-1.7-33-.6-15-.7-15.6-3.3-18.2a18.8 18.8 0 0 0-7-3.8c-3.2-.9-8.8-1-18.5-.6-7.7.4-18.5 1.2-24 1.7s-11.4 1.4-13.2 2c-2.5.8-3.5 1.9-4.3 4.7-.6 2-1.7 9.6-2.5 16.7s-1.9 20.6-2.5 30a2090 2090 0 0 0-2 56l-1.6 66c-.3 14.9-.2 34.6.3 43.8.9 15.1 1.2 17 3.1 19 1.9 1.8 3.8 2.2 16 3 7.5.4 19 1 25.5 1.5 8.5.6 12.2 1.3 13.3 2.4 1.2 1.2 1.3 2 .5 3.6a7 7 0 0 1-2.8 2.7c-1 .4-13.5 1.1-27.8 1.6l-71.2 1.5Zm630.7.3c4.2 0 10.3-.6 13.5-1.4a84 84 0 0 0 13.2-5 66 66 0 0 0 25.2-20.4A74.8 74.8 0 0 0 1421 211a90.8 90.8 0 0 0-3.6-37c-1.4-4.1-4-10-5.7-13a63.8 63.8 0 0 0-16.2-18 55.6 55.6 0 0 0-9.9-4.9 39 39 0 0 0-13.2-2.3c-4 0-9.4.5-12 1.1a61.8 61.8 0 0 0-21.6 11.5 76 76 0 0 0-10.3 10.8 100.7 100.7 0 0 0-15.8 34.5 104 104 0 0 0-2.2 27.3c0 14.2.4 18.7 1.8 23.5 1 3.3 3.4 8.3 5.2 11a54.3 54.3 0 0 0 27 20.1c2.2.7 7.4 1.3 11.5 1.3Zm806-1c-3 .3-7.3.5-9.5.3a45 45 0 0 1-8.7-1.8c-2.9-1-6-2.9-7.8-5-2-2.4-3-4.5-3-7s1-4.4 3.6-7.3c2.3-2.6 5.3-4.6 8.7-5.7 3.2-1 8.2-1.7 13-1.7 6.2 0 8.6.5 13.2 2.7 3.6 1.8 6 3.8 7.1 5.8 1 2 1.4 4.5 1 7-.2 2.2-1.4 5-2.6 6.3a22.9 22.9 0 0 1-5.8 4c-2 1-6 2-9.1 2.4Zm-7.8-51c-5.5.1-6.4-.2-7.2-2.2-.6-1.2-1.7-12.1-2.5-24.2a3759 3759 0 0 1-4.5-83.5 16845.3 16845.3 0 0 0-4.6-89c-.6-12.4-.5-13.7 1.3-15.9 1.8-2.2 3.2-2.5 16.4-3.7 9.3-.9 15.2-1 16.6-.4 1.2.5 3 2 3.8 3.3 1.3 2.1 1.4 3.5.5 8.8-.6 3.5-1.7 15-2.5 25.4a3808.8 3808.8 0 0 0-7.4 145.9c-.7 27-1.1 34-2.2 34.7-.8.5-4.2.9-7.7.9Zm-1067.5-51.6c36.3-1 44.2-1.7 50.8-3.1a157.8 157.8 0 0 0 35.4-12.8c4.6-2.4 11.2-6.4 14.6-8.9a100.9 100.9 0 0 0 23.4-24c2.6-4 5.6-9.8 6.7-13 1.3-4.2 1.9-8.8 1.9-15 0-8.2-.3-9.7-3.3-15.8-2-3.9-6-9.7-9.5-13.4a103.8 103.8 0 0 0-44.2-27.3 168.1 168.1 0 0 0-45.8-8.7 68 68 0 0 0-17.6.6c-2.2.6-4.6 2.2-5.6 3.7-1.4 2.1-2.1 7.9-3.5 27.8-1 13.8-2.2 44.2-2.6 67.5l-.7 42.4Z"/></svg>